<svg width="25" height="24" viewBox="0 0 25 24" fill="none" xmlns="http://www.w3.org/2000/svg">
<path d="M0.600098 21.6H24.6001V24H0.600098V21.6ZM3.0001 12H5.4001V20.4H3.0001V12ZM9.0001 12H11.4001V20.4H9.0001V12ZM13.8001 12H16.2001V20.4H13.8001V12ZM19.8001 12H22.2001V20.4H19.8001V12ZM0.600098 6L12.6001 0L24.6001 6V10.8H0.600098V6ZM3.0001 7.4832V8.4H22.2001V7.4832L12.6001 2.6832L3.0001 7.4832ZM12.6001 7.2C12.2818 7.2 11.9766 7.07357 11.7516 6.84853C11.5265 6.62348 11.4001 6.31826 11.4001 6C11.4001 5.68174 11.5265 5.37652 11.7516 5.15147C11.9766 4.92643 12.2818 4.8 12.6001 4.8C12.9184 4.8 13.2236 4.92643 13.4486 5.15147C13.6737 5.37652 13.8001 5.68174 13.8001 6C13.8001 6.31826 13.6737 6.62348 13.4486 6.84853C13.2236 7.07357 12.9184 7.2 12.6001 7.2Z" fill="#1DAB87"/>
</svg>
